<mxfile host="app.diagrams.net" modified="2022-02-26T21:14:37.233Z" agent="5.0 (X11)" etag="Hc11s3BBQxOLDm2ag6Ne" version="16.6.4" type="github">
  <diagram id="HGOWRlIO0jP8CjzM9mRS" name="Page-1">
    <mxGraphModel dx="1416" dy="684" grid="1" gridSize="10" guides="1" tooltips="1" connect="1" arrows="1" fold="1" page="1" pageScale="1" pageWidth="850" pageHeight="1100" math="0" shadow="0">
      <root>
        <mxCell id="0" />
        <mxCell id="1" parent="0" />
        <mxCell id="hxHElys9ab2affVmfVg2-1" value="" style="ellipse;html=1;shape=startState;fillColor=#000000;strokeColor=#ff0000;rounded=1;shadow=0;comic=0;labelBackgroundColor=none;fontFamily=Verdana;fontSize=12;fontColor=#000000;align=center;direction=south;" vertex="1" parent="1">
          <mxGeometry x="20" y="60" width="30" height="30" as="geometry" />
        </mxCell>
        <mxCell id="hxHElys9ab2affVmfVg2-2" style="edgeStyle=orthogonalEdgeStyle;html=1;labelBackgroundColor=none;endArrow=open;endSize=8;strokeColor=#ff0000;fontFamily=Verdana;fontSize=12;align=left;" edge="1" parent="1" source="hxHElys9ab2affVmfVg2-1">
          <mxGeometry relative="1" as="geometry">
            <mxPoint x="60" y="75" as="targetPoint" />
          </mxGeometry>
        </mxCell>
        <mxCell id="hxHElys9ab2affVmfVg2-3" value="Ordering to Receiving a Cake" style="swimlane;whiteSpace=wrap;html=1;rounded=1;shadow=0;comic=0;labelBackgroundColor=none;strokeWidth=1;fontFamily=Verdana;fontSize=12;align=center;" vertex="1" parent="1">
          <mxGeometry x="10" y="390" width="1220" height="200" as="geometry" />
        </mxCell>
        <mxCell id="hxHElys9ab2affVmfVg2-4" style="edgeStyle=elbowEdgeStyle;html=1;labelBackgroundColor=none;endArrow=open;endSize=8;strokeColor=#ff0000;fontFamily=Verdana;fontSize=12;align=left;" edge="1" parent="hxHElys9ab2affVmfVg2-3" source="hxHElys9ab2affVmfVg2-5" target="hxHElys9ab2affVmfVg2-9">
          <mxGeometry relative="1" as="geometry" />
        </mxCell>
        <mxCell id="hxHElys9ab2affVmfVg2-5" value="Harvest" style="rounded=1;whiteSpace=wrap;html=1;arcSize=24;fillColor=#ffffc0;strokeColor=#ff0000;shadow=0;comic=0;labelBackgroundColor=none;fontFamily=Verdana;fontSize=12;fontColor=#000000;align=center;" vertex="1" parent="hxHElys9ab2affVmfVg2-3">
          <mxGeometry x="50" y="65" width="120" height="60" as="geometry" />
        </mxCell>
        <mxCell id="hxHElys9ab2affVmfVg2-6" style="edgeStyle=elbowEdgeStyle;html=1;labelBackgroundColor=none;endArrow=open;endSize=8;strokeColor=#ff0000;fontFamily=Verdana;fontSize=12;align=left;" edge="1" parent="hxHElys9ab2affVmfVg2-3" source="hxHElys9ab2affVmfVg2-7" target="hxHElys9ab2affVmfVg2-5">
          <mxGeometry relative="1" as="geometry" />
        </mxCell>
        <mxCell id="hxHElys9ab2affVmfVg2-7" value="" style="ellipse;html=1;shape=startState;fillColor=#000000;strokeColor=#ff0000;rounded=1;shadow=0;comic=0;labelBackgroundColor=none;fontFamily=Verdana;fontSize=12;fontColor=#000000;align=center;direction=south;" vertex="1" parent="hxHElys9ab2affVmfVg2-3">
          <mxGeometry y="80" width="30" height="30" as="geometry" />
        </mxCell>
        <mxCell id="hxHElys9ab2affVmfVg2-8" style="edgeStyle=elbowEdgeStyle;html=1;labelBackgroundColor=none;endArrow=open;endSize=8;strokeColor=#ff0000;fontFamily=Verdana;fontSize=12;align=left;" edge="1" parent="hxHElys9ab2affVmfVg2-3" source="hxHElys9ab2affVmfVg2-9" target="hxHElys9ab2affVmfVg2-10">
          <mxGeometry relative="1" as="geometry" />
        </mxCell>
        <mxCell id="hxHElys9ab2affVmfVg2-9" value="Process" style="rounded=1;whiteSpace=wrap;html=1;arcSize=24;fillColor=#ffffc0;strokeColor=#ff0000;shadow=0;comic=0;labelBackgroundColor=none;fontFamily=Verdana;fontSize=12;fontColor=#000000;align=center;" vertex="1" parent="hxHElys9ab2affVmfVg2-3">
          <mxGeometry x="190" y="65" width="120" height="60" as="geometry" />
        </mxCell>
        <mxCell id="hxHElys9ab2affVmfVg2-10" value="Pack" style="rounded=1;whiteSpace=wrap;html=1;arcSize=24;fillColor=#ffffc0;strokeColor=#ff0000;shadow=0;comic=0;labelBackgroundColor=none;fontFamily=Verdana;fontSize=12;fontColor=#000000;align=center;" vertex="1" parent="hxHElys9ab2affVmfVg2-3">
          <mxGeometry x="325" y="65" width="120" height="60" as="geometry" />
        </mxCell>
        <mxCell id="hxHElys9ab2affVmfVg2-11" value="Sell" style="whiteSpace=wrap;html=1;fontFamily=Verdana;fillColor=#ffffc0;strokeColor=#ff0000;fontColor=#000000;rounded=1;arcSize=24;shadow=0;comic=0;labelBackgroundColor=none;" vertex="1" parent="hxHElys9ab2affVmfVg2-3">
          <mxGeometry x="470" y="65" width="120" height="60" as="geometry" />
        </mxCell>
        <mxCell id="hxHElys9ab2affVmfVg2-12" value="" style="edgeStyle=orthogonalEdgeStyle;rounded=0;orthogonalLoop=1;jettySize=auto;html=1;fillColor=#fa6800;strokeColor=#C73500;" edge="1" parent="hxHElys9ab2affVmfVg2-3" source="hxHElys9ab2affVmfVg2-10" target="hxHElys9ab2affVmfVg2-11">
          <mxGeometry relative="1" as="geometry" />
        </mxCell>
        <mxCell id="hxHElys9ab2affVmfVg2-13" value="Buy" style="whiteSpace=wrap;html=1;fontFamily=Verdana;fillColor=#ffffc0;strokeColor=#ff0000;fontColor=#000000;rounded=1;arcSize=24;shadow=0;comic=0;labelBackgroundColor=none;" vertex="1" parent="hxHElys9ab2affVmfVg2-3">
          <mxGeometry x="610" y="65" width="120" height="60" as="geometry" />
        </mxCell>
        <mxCell id="hxHElys9ab2affVmfVg2-14" value="" style="edgeStyle=orthogonalEdgeStyle;rounded=0;orthogonalLoop=1;jettySize=auto;html=1;" edge="1" parent="hxHElys9ab2affVmfVg2-3" source="hxHElys9ab2affVmfVg2-11" target="hxHElys9ab2affVmfVg2-13">
          <mxGeometry relative="1" as="geometry" />
        </mxCell>
        <mxCell id="hxHElys9ab2affVmfVg2-15" value="Ship" style="whiteSpace=wrap;html=1;fontFamily=Verdana;fillColor=#ffffc0;strokeColor=#ff0000;fontColor=#000000;rounded=1;arcSize=24;shadow=0;comic=0;labelBackgroundColor=none;" vertex="1" parent="hxHElys9ab2affVmfVg2-3">
          <mxGeometry x="750" y="65" width="120" height="60" as="geometry" />
        </mxCell>
        <mxCell id="hxHElys9ab2affVmfVg2-16" value="" style="edgeStyle=orthogonalEdgeStyle;rounded=0;orthogonalLoop=1;jettySize=auto;html=1;" edge="1" parent="hxHElys9ab2affVmfVg2-3" source="hxHElys9ab2affVmfVg2-13" target="hxHElys9ab2affVmfVg2-15">
          <mxGeometry relative="1" as="geometry" />
        </mxCell>
        <mxCell id="hxHElys9ab2affVmfVg2-22" value="" style="edgeStyle=orthogonalEdgeStyle;rounded=0;orthogonalLoop=1;jettySize=auto;html=1;" edge="1" parent="hxHElys9ab2affVmfVg2-3" source="hxHElys9ab2affVmfVg2-17" target="hxHElys9ab2affVmfVg2-21">
          <mxGeometry relative="1" as="geometry" />
        </mxCell>
        <mxCell id="hxHElys9ab2affVmfVg2-17" value="Receive" style="whiteSpace=wrap;html=1;fontFamily=Verdana;fillColor=#ffffc0;strokeColor=#ff0000;fontColor=#000000;rounded=1;arcSize=24;shadow=0;comic=0;labelBackgroundColor=none;" vertex="1" parent="hxHElys9ab2affVmfVg2-3">
          <mxGeometry x="890" y="65" width="120" height="60" as="geometry" />
        </mxCell>
        <mxCell id="hxHElys9ab2affVmfVg2-18" value="" style="edgeStyle=orthogonalEdgeStyle;rounded=0;orthogonalLoop=1;jettySize=auto;html=1;" edge="1" parent="hxHElys9ab2affVmfVg2-3" source="hxHElys9ab2affVmfVg2-15" target="hxHElys9ab2affVmfVg2-17">
          <mxGeometry relative="1" as="geometry" />
        </mxCell>
        <mxCell id="hxHElys9ab2affVmfVg2-19" value="" style="ellipse;html=1;shape=endState;fillColor=#000000;strokeColor=#ff0000;rounded=1;shadow=0;comic=0;labelBackgroundColor=none;fontFamily=Verdana;fontSize=12;fontColor=#000000;align=center;" vertex="1" parent="hxHElys9ab2affVmfVg2-3">
          <mxGeometry x="1180" y="80" width="30" height="30" as="geometry" />
        </mxCell>
        <mxCell id="hxHElys9ab2affVmfVg2-23" value="" style="edgeStyle=orthogonalEdgeStyle;rounded=0;orthogonalLoop=1;jettySize=auto;html=1;" edge="1" parent="hxHElys9ab2affVmfVg2-3" source="hxHElys9ab2affVmfVg2-21" target="hxHElys9ab2affVmfVg2-19">
          <mxGeometry relative="1" as="geometry" />
        </mxCell>
        <mxCell id="hxHElys9ab2affVmfVg2-21" value="Purchase" style="whiteSpace=wrap;html=1;fontFamily=Verdana;fillColor=#ffffc0;strokeColor=#ff0000;fontColor=#000000;rounded=1;arcSize=24;shadow=0;comic=0;labelBackgroundColor=none;" vertex="1" parent="hxHElys9ab2affVmfVg2-3">
          <mxGeometry x="1030" y="65" width="120" height="60" as="geometry" />
        </mxCell>
        <mxCell id="hxHElys9ab2affVmfVg2-31" value="" style="edgeStyle=orthogonalEdgeStyle;rounded=0;orthogonalLoop=1;jettySize=auto;html=1;" edge="1" parent="1" source="hxHElys9ab2affVmfVg2-29" target="hxHElys9ab2affVmfVg2-30">
          <mxGeometry relative="1" as="geometry" />
        </mxCell>
        <mxCell id="hxHElys9ab2affVmfVg2-45" value="" style="edgeStyle=orthogonalEdgeStyle;rounded=0;orthogonalLoop=1;jettySize=auto;html=1;" edge="1" parent="1" source="hxHElys9ab2affVmfVg2-29" target="hxHElys9ab2affVmfVg2-44">
          <mxGeometry relative="1" as="geometry" />
        </mxCell>
        <mxCell id="hxHElys9ab2affVmfVg2-29" value="Farmer" style="rounded=1;whiteSpace=wrap;html=1;arcSize=24;fillColor=#e1d5e7;strokeColor=#9673a6;shadow=0;comic=0;labelBackgroundColor=none;fontFamily=Verdana;fontSize=12;align=center;" vertex="1" parent="1">
          <mxGeometry x="60" y="53" width="120" height="60" as="geometry" />
        </mxCell>
        <mxCell id="hxHElys9ab2affVmfVg2-33" value="" style="edgeStyle=orthogonalEdgeStyle;rounded=0;orthogonalLoop=1;jettySize=auto;html=1;" edge="1" parent="1" source="hxHElys9ab2affVmfVg2-30" target="hxHElys9ab2affVmfVg2-32">
          <mxGeometry relative="1" as="geometry" />
        </mxCell>
        <mxCell id="hxHElys9ab2affVmfVg2-53" value="" style="edgeStyle=orthogonalEdgeStyle;rounded=0;orthogonalLoop=1;jettySize=auto;html=1;" edge="1" parent="1" source="hxHElys9ab2affVmfVg2-30" target="hxHElys9ab2affVmfVg2-46">
          <mxGeometry relative="1" as="geometry" />
        </mxCell>
        <mxCell id="hxHElys9ab2affVmfVg2-30" value="Farmer" style="rounded=1;whiteSpace=wrap;html=1;arcSize=24;fillColor=#e1d5e7;strokeColor=#9673a6;shadow=0;comic=0;labelBackgroundColor=none;fontFamily=Verdana;fontSize=12;align=center;" vertex="1" parent="1">
          <mxGeometry x="200" y="53" width="120" height="60" as="geometry" />
        </mxCell>
        <mxCell id="hxHElys9ab2affVmfVg2-35" value="" style="edgeStyle=orthogonalEdgeStyle;rounded=0;orthogonalLoop=1;jettySize=auto;html=1;" edge="1" parent="1" source="hxHElys9ab2affVmfVg2-32" target="hxHElys9ab2affVmfVg2-34">
          <mxGeometry relative="1" as="geometry" />
        </mxCell>
        <mxCell id="hxHElys9ab2affVmfVg2-54" value="" style="edgeStyle=orthogonalEdgeStyle;rounded=0;orthogonalLoop=1;jettySize=auto;html=1;" edge="1" parent="1" source="hxHElys9ab2affVmfVg2-32" target="hxHElys9ab2affVmfVg2-47">
          <mxGeometry relative="1" as="geometry" />
        </mxCell>
        <mxCell id="hxHElys9ab2affVmfVg2-32" value="Farmer" style="rounded=1;whiteSpace=wrap;html=1;arcSize=24;fillColor=#e1d5e7;strokeColor=#9673a6;shadow=0;comic=0;labelBackgroundColor=none;fontFamily=Verdana;fontSize=12;align=center;" vertex="1" parent="1">
          <mxGeometry x="335" y="53" width="120" height="60" as="geometry" />
        </mxCell>
        <mxCell id="hxHElys9ab2affVmfVg2-37" value="" style="edgeStyle=orthogonalEdgeStyle;rounded=0;orthogonalLoop=1;jettySize=auto;html=1;" edge="1" parent="1" source="hxHElys9ab2affVmfVg2-34" target="hxHElys9ab2affVmfVg2-36">
          <mxGeometry relative="1" as="geometry" />
        </mxCell>
        <mxCell id="hxHElys9ab2affVmfVg2-55" value="" style="edgeStyle=orthogonalEdgeStyle;rounded=0;orthogonalLoop=1;jettySize=auto;html=1;" edge="1" parent="1" source="hxHElys9ab2affVmfVg2-34" target="hxHElys9ab2affVmfVg2-48">
          <mxGeometry relative="1" as="geometry" />
        </mxCell>
        <mxCell id="hxHElys9ab2affVmfVg2-34" value="Farmer" style="rounded=1;whiteSpace=wrap;html=1;arcSize=24;fillColor=#e1d5e7;strokeColor=#9673a6;shadow=0;comic=0;labelBackgroundColor=none;fontFamily=Verdana;fontSize=12;align=center;" vertex="1" parent="1">
          <mxGeometry x="480" y="53" width="120" height="60" as="geometry" />
        </mxCell>
        <mxCell id="hxHElys9ab2affVmfVg2-39" value="" style="edgeStyle=orthogonalEdgeStyle;rounded=0;orthogonalLoop=1;jettySize=auto;html=1;" edge="1" parent="1" source="hxHElys9ab2affVmfVg2-36" target="hxHElys9ab2affVmfVg2-38">
          <mxGeometry relative="1" as="geometry" />
        </mxCell>
        <mxCell id="hxHElys9ab2affVmfVg2-56" value="" style="edgeStyle=orthogonalEdgeStyle;rounded=0;orthogonalLoop=1;jettySize=auto;html=1;" edge="1" parent="1" source="hxHElys9ab2affVmfVg2-36" target="hxHElys9ab2affVmfVg2-49">
          <mxGeometry relative="1" as="geometry" />
        </mxCell>
        <mxCell id="hxHElys9ab2affVmfVg2-36" value="Distributor" style="rounded=1;whiteSpace=wrap;html=1;arcSize=24;fillColor=#d5e8d4;strokeColor=#82b366;shadow=0;comic=0;labelBackgroundColor=none;fontFamily=Verdana;fontSize=12;align=center;" vertex="1" parent="1">
          <mxGeometry x="620" y="53" width="120" height="60" as="geometry" />
        </mxCell>
        <mxCell id="hxHElys9ab2affVmfVg2-41" value="" style="edgeStyle=orthogonalEdgeStyle;rounded=0;orthogonalLoop=1;jettySize=auto;html=1;" edge="1" parent="1" source="hxHElys9ab2affVmfVg2-38" target="hxHElys9ab2affVmfVg2-40">
          <mxGeometry relative="1" as="geometry" />
        </mxCell>
        <mxCell id="hxHElys9ab2affVmfVg2-57" value="" style="edgeStyle=orthogonalEdgeStyle;rounded=0;orthogonalLoop=1;jettySize=auto;html=1;" edge="1" parent="1" source="hxHElys9ab2affVmfVg2-38" target="hxHElys9ab2affVmfVg2-50">
          <mxGeometry relative="1" as="geometry" />
        </mxCell>
        <mxCell id="hxHElys9ab2affVmfVg2-38" value="Distributor" style="rounded=1;whiteSpace=wrap;html=1;arcSize=24;fillColor=#d5e8d4;strokeColor=#82b366;shadow=0;comic=0;labelBackgroundColor=none;fontFamily=Verdana;fontSize=12;align=center;" vertex="1" parent="1">
          <mxGeometry x="760" y="53" width="120" height="60" as="geometry" />
        </mxCell>
        <mxCell id="hxHElys9ab2affVmfVg2-43" value="" style="edgeStyle=orthogonalEdgeStyle;rounded=0;orthogonalLoop=1;jettySize=auto;html=1;" edge="1" parent="1" source="hxHElys9ab2affVmfVg2-40" target="hxHElys9ab2affVmfVg2-42">
          <mxGeometry relative="1" as="geometry" />
        </mxCell>
        <mxCell id="hxHElys9ab2affVmfVg2-58" value="" style="edgeStyle=orthogonalEdgeStyle;rounded=0;orthogonalLoop=1;jettySize=auto;html=1;" edge="1" parent="1" source="hxHElys9ab2affVmfVg2-40" target="hxHElys9ab2affVmfVg2-51">
          <mxGeometry relative="1" as="geometry" />
        </mxCell>
        <mxCell id="hxHElys9ab2affVmfVg2-40" value="Retailer" style="rounded=1;whiteSpace=wrap;html=1;arcSize=24;fillColor=#dae8fc;strokeColor=#6c8ebf;shadow=0;comic=0;labelBackgroundColor=none;fontFamily=Verdana;fontSize=12;align=center;" vertex="1" parent="1">
          <mxGeometry x="900" y="53" width="120" height="60" as="geometry" />
        </mxCell>
        <mxCell id="hxHElys9ab2affVmfVg2-59" value="" style="edgeStyle=orthogonalEdgeStyle;rounded=0;orthogonalLoop=1;jettySize=auto;html=1;" edge="1" parent="1" source="hxHElys9ab2affVmfVg2-42" target="hxHElys9ab2affVmfVg2-52">
          <mxGeometry relative="1" as="geometry" />
        </mxCell>
        <mxCell id="hxHElys9ab2affVmfVg2-42" value="Consumer" style="rounded=1;whiteSpace=wrap;html=1;arcSize=24;fillColor=#f8cecc;strokeColor=#b85450;shadow=0;comic=0;labelBackgroundColor=none;fontFamily=Verdana;fontSize=12;align=center;" vertex="1" parent="1">
          <mxGeometry x="1040" y="53" width="120" height="60" as="geometry" />
        </mxCell>
        <mxCell id="hxHElys9ab2affVmfVg2-68" value="" style="edgeStyle=orthogonalEdgeStyle;rounded=0;orthogonalLoop=1;jettySize=auto;html=1;" edge="1" parent="1" source="hxHElys9ab2affVmfVg2-44" target="hxHElys9ab2affVmfVg2-60">
          <mxGeometry relative="1" as="geometry" />
        </mxCell>
        <mxCell id="hxHElys9ab2affVmfVg2-44" value="isFarmer" style="html=1;" vertex="1" parent="1">
          <mxGeometry x="65" y="160" width="110" height="50" as="geometry" />
        </mxCell>
        <mxCell id="hxHElys9ab2affVmfVg2-69" value="" style="edgeStyle=orthogonalEdgeStyle;rounded=0;orthogonalLoop=1;jettySize=auto;html=1;" edge="1" parent="1" source="hxHElys9ab2affVmfVg2-46" target="hxHElys9ab2affVmfVg2-61">
          <mxGeometry relative="1" as="geometry" />
        </mxCell>
        <mxCell id="hxHElys9ab2affVmfVg2-46" value="isFarmer" style="html=1;" vertex="1" parent="1">
          <mxGeometry x="205" y="160" width="110" height="50" as="geometry" />
        </mxCell>
        <mxCell id="hxHElys9ab2affVmfVg2-70" value="" style="edgeStyle=orthogonalEdgeStyle;rounded=0;orthogonalLoop=1;jettySize=auto;html=1;" edge="1" parent="1" source="hxHElys9ab2affVmfVg2-47" target="hxHElys9ab2affVmfVg2-62">
          <mxGeometry relative="1" as="geometry" />
        </mxCell>
        <mxCell id="hxHElys9ab2affVmfVg2-47" value="isFarmer" style="html=1;" vertex="1" parent="1">
          <mxGeometry x="340" y="160" width="110" height="50" as="geometry" />
        </mxCell>
        <mxCell id="hxHElys9ab2affVmfVg2-71" value="" style="edgeStyle=orthogonalEdgeStyle;rounded=0;orthogonalLoop=1;jettySize=auto;html=1;" edge="1" parent="1" source="hxHElys9ab2affVmfVg2-48" target="hxHElys9ab2affVmfVg2-63">
          <mxGeometry relative="1" as="geometry" />
        </mxCell>
        <mxCell id="hxHElys9ab2affVmfVg2-48" value="isFarmer" style="html=1;" vertex="1" parent="1">
          <mxGeometry x="485" y="160" width="110" height="50" as="geometry" />
        </mxCell>
        <mxCell id="hxHElys9ab2affVmfVg2-72" value="" style="edgeStyle=orthogonalEdgeStyle;rounded=0;orthogonalLoop=1;jettySize=auto;html=1;" edge="1" parent="1" source="hxHElys9ab2affVmfVg2-49" target="hxHElys9ab2affVmfVg2-64">
          <mxGeometry relative="1" as="geometry" />
        </mxCell>
        <mxCell id="hxHElys9ab2affVmfVg2-49" value="isDistributor" style="html=1;" vertex="1" parent="1">
          <mxGeometry x="625" y="160" width="110" height="50" as="geometry" />
        </mxCell>
        <mxCell id="hxHElys9ab2affVmfVg2-73" value="" style="edgeStyle=orthogonalEdgeStyle;rounded=0;orthogonalLoop=1;jettySize=auto;html=1;" edge="1" parent="1" source="hxHElys9ab2affVmfVg2-50" target="hxHElys9ab2affVmfVg2-65">
          <mxGeometry relative="1" as="geometry" />
        </mxCell>
        <mxCell id="hxHElys9ab2affVmfVg2-50" value="isDistributor" style="html=1;" vertex="1" parent="1">
          <mxGeometry x="765" y="160" width="110" height="50" as="geometry" />
        </mxCell>
        <mxCell id="hxHElys9ab2affVmfVg2-74" value="" style="edgeStyle=orthogonalEdgeStyle;rounded=0;orthogonalLoop=1;jettySize=auto;html=1;" edge="1" parent="1" source="hxHElys9ab2affVmfVg2-51" target="hxHElys9ab2affVmfVg2-66">
          <mxGeometry relative="1" as="geometry" />
        </mxCell>
        <mxCell id="hxHElys9ab2affVmfVg2-51" value="isRetailer" style="html=1;" vertex="1" parent="1">
          <mxGeometry x="905" y="160" width="110" height="50" as="geometry" />
        </mxCell>
        <mxCell id="hxHElys9ab2affVmfVg2-75" value="" style="edgeStyle=orthogonalEdgeStyle;rounded=0;orthogonalLoop=1;jettySize=auto;html=1;" edge="1" parent="1" source="hxHElys9ab2affVmfVg2-52" target="hxHElys9ab2affVmfVg2-67">
          <mxGeometry relative="1" as="geometry" />
        </mxCell>
        <mxCell id="hxHElys9ab2affVmfVg2-52" value="isConsumer" style="html=1;" vertex="1" parent="1">
          <mxGeometry x="1045" y="160" width="110" height="50" as="geometry" />
        </mxCell>
        <mxCell id="hxHElys9ab2affVmfVg2-76" value="" style="edgeStyle=orthogonalEdgeStyle;rounded=0;orthogonalLoop=1;jettySize=auto;html=1;" edge="1" parent="1" source="hxHElys9ab2affVmfVg2-60" target="hxHElys9ab2affVmfVg2-5">
          <mxGeometry relative="1" as="geometry" />
        </mxCell>
        <mxCell id="hxHElys9ab2affVmfVg2-60" value="harvestItem()" style="shape=note2;boundedLbl=1;whiteSpace=wrap;html=1;size=25;verticalAlign=top;align=center;" vertex="1" parent="1">
          <mxGeometry x="70" y="270" width="100" height="60" as="geometry" />
        </mxCell>
        <mxCell id="hxHElys9ab2affVmfVg2-77" value="" style="edgeStyle=orthogonalEdgeStyle;rounded=0;orthogonalLoop=1;jettySize=auto;html=1;" edge="1" parent="1" source="hxHElys9ab2affVmfVg2-61" target="hxHElys9ab2affVmfVg2-9">
          <mxGeometry relative="1" as="geometry" />
        </mxCell>
        <mxCell id="hxHElys9ab2affVmfVg2-61" value="processItem()" style="shape=note2;boundedLbl=1;whiteSpace=wrap;html=1;size=25;verticalAlign=top;align=center;" vertex="1" parent="1">
          <mxGeometry x="210" y="270" width="100" height="60" as="geometry" />
        </mxCell>
        <mxCell id="hxHElys9ab2affVmfVg2-78" value="" style="edgeStyle=orthogonalEdgeStyle;rounded=0;orthogonalLoop=1;jettySize=auto;html=1;" edge="1" parent="1" source="hxHElys9ab2affVmfVg2-62" target="hxHElys9ab2affVmfVg2-10">
          <mxGeometry relative="1" as="geometry" />
        </mxCell>
        <mxCell id="hxHElys9ab2affVmfVg2-62" value="packItem()" style="shape=note2;boundedLbl=1;whiteSpace=wrap;html=1;size=25;verticalAlign=top;align=center;" vertex="1" parent="1">
          <mxGeometry x="345" y="270" width="100" height="60" as="geometry" />
        </mxCell>
        <mxCell id="hxHElys9ab2affVmfVg2-79" value="" style="edgeStyle=orthogonalEdgeStyle;rounded=0;orthogonalLoop=1;jettySize=auto;html=1;" edge="1" parent="1" source="hxHElys9ab2affVmfVg2-63" target="hxHElys9ab2affVmfVg2-11">
          <mxGeometry relative="1" as="geometry" />
        </mxCell>
        <mxCell id="hxHElys9ab2affVmfVg2-63" value="sellItem()" style="shape=note2;boundedLbl=1;whiteSpace=wrap;html=1;size=25;verticalAlign=top;align=center;" vertex="1" parent="1">
          <mxGeometry x="490" y="270" width="100" height="60" as="geometry" />
        </mxCell>
        <mxCell id="hxHElys9ab2affVmfVg2-80" value="" style="edgeStyle=orthogonalEdgeStyle;rounded=0;orthogonalLoop=1;jettySize=auto;html=1;" edge="1" parent="1" source="hxHElys9ab2affVmfVg2-64" target="hxHElys9ab2affVmfVg2-13">
          <mxGeometry relative="1" as="geometry" />
        </mxCell>
        <mxCell id="hxHElys9ab2affVmfVg2-64" value="buyItem()" style="shape=note2;boundedLbl=1;whiteSpace=wrap;html=1;size=25;verticalAlign=top;align=center;" vertex="1" parent="1">
          <mxGeometry x="630" y="270" width="100" height="60" as="geometry" />
        </mxCell>
        <mxCell id="hxHElys9ab2affVmfVg2-81" value="" style="edgeStyle=orthogonalEdgeStyle;rounded=0;orthogonalLoop=1;jettySize=auto;html=1;" edge="1" parent="1" source="hxHElys9ab2affVmfVg2-65" target="hxHElys9ab2affVmfVg2-15">
          <mxGeometry relative="1" as="geometry" />
        </mxCell>
        <mxCell id="hxHElys9ab2affVmfVg2-65" value="shipItem()" style="shape=note2;boundedLbl=1;whiteSpace=wrap;html=1;size=25;verticalAlign=top;align=center;" vertex="1" parent="1">
          <mxGeometry x="770" y="270" width="100" height="60" as="geometry" />
        </mxCell>
        <mxCell id="hxHElys9ab2affVmfVg2-82" value="" style="edgeStyle=orthogonalEdgeStyle;rounded=0;orthogonalLoop=1;jettySize=auto;html=1;" edge="1" parent="1" source="hxHElys9ab2affVmfVg2-66" target="hxHElys9ab2affVmfVg2-17">
          <mxGeometry relative="1" as="geometry" />
        </mxCell>
        <mxCell id="hxHElys9ab2affVmfVg2-66" value="receiveItem()" style="shape=note2;boundedLbl=1;whiteSpace=wrap;html=1;size=25;verticalAlign=top;align=center;" vertex="1" parent="1">
          <mxGeometry x="910" y="270" width="100" height="60" as="geometry" />
        </mxCell>
        <mxCell id="hxHElys9ab2affVmfVg2-83" value="" style="edgeStyle=orthogonalEdgeStyle;rounded=0;orthogonalLoop=1;jettySize=auto;html=1;" edge="1" parent="1" source="hxHElys9ab2affVmfVg2-67" target="hxHElys9ab2affVmfVg2-21">
          <mxGeometry relative="1" as="geometry" />
        </mxCell>
        <mxCell id="hxHElys9ab2affVmfVg2-67" value="purchaseItem()" style="shape=note2;boundedLbl=1;whiteSpace=wrap;html=1;size=25;verticalAlign=top;align=center;" vertex="1" parent="1">
          <mxGeometry x="1050" y="270" width="100" height="60" as="geometry" />
        </mxCell>
      </root>
    </mxGraphModel>
  </diagram>
</mxfile>
